<?xml version="1.0" encoding="UTF-8" standalone="no"?>
<svg
   version="1.0"
   width="48pt"
   height="48pt"
   viewBox="0 0 48 48"
   preserveAspectRatio="xMidYMid"
   id="svg1"
   sodipodi:docname="scale_1200.svg"
   inkscape:version="1.4 (e7c3feb100, 2024-10-09)"
   xmlns:inkscape="http://www.inkscape.org/namespaces/inkscape"
   xmlns:sodipodi="http://sodipodi.sourceforge.net/DTD/sodipodi-0.dtd"
   xmlns:xlink="http://www.w3.org/1999/xlink"
   xmlns="http://www.w3.org/2000/svg"
   xmlns:svg="http://www.w3.org/2000/svg">
  <defs
     id="defs1">
    <linearGradient
       id="linearGradient23"
       inkscape:collect="always">
      <stop
         style="stop-color:#f62a15;stop-opacity:1;"
         offset="0.11809045"
         id="stop23" />
      <stop
         style="stop-color:#d63ddc;stop-opacity:0.79435486;"
         offset="1"
         id="stop24" />
    </linearGradient>
    <linearGradient
       inkscape:collect="always"
       xlink:href="#linearGradient23"
       id="linearGradient24"
       x1="10.59375"
       y1="37.78125"
       x2="51.1875"
       y2="-2.15625"
       gradientUnits="userSpaceOnUse" />
  </defs>
  <sodipodi:namedview
     id="namedview1"
     pagecolor="#ffffff"
     bordercolor="#000000"
     borderopacity="0.25"
     inkscape:showpageshadow="2"
     inkscape:pageopacity="0.0"
     inkscape:pagecheckerboard="0"
     inkscape:deskcolor="#d1d1d1"
     inkscape:document-units="pt"
     showgrid="false"
     inkscape:zoom="8"
     inkscape:cx="26.375"
     inkscape:cy="29.25"
     inkscape:window-width="1920"
     inkscape:window-height="1049"
     inkscape:window-x="0"
     inkscape:window-y="0"
     inkscape:window-maximized="1"
     inkscape:current-layer="layer3" />
  <g
     transform="matrix(0.1,0,0,-0.1,0,650)"
     fill="#000000"
     stroke="none"
     id="g1" />
  <g
     inkscape:groupmode="layer"
     id="layer1"
     inkscape:label="circle" />
  <g
     inkscape:groupmode="layer"
     id="layer3"
     inkscape:label="Yandx">
    <path
       d="M 6.5533961,2.552136 C 5.7126659,3.0926043 3.5868182,5.1944377 3.0103171,6.0471753 2.7460875,6.443515 2.5298996,6.8879068 2.5298996,7.0440415 c 0,0.1801561 0.3362923,0.576505 1.068929,1.273108 0.5885115,0.5404686 2.6062653,2.4861575 4.479894,4.2997345 1.8616184,1.813576 4.8522174,4.696083 6.6417724,6.425589 1.777545,1.71749 3.879373,3.747251 4.672061,4.515917 l 1.417232,1.405222 -0.04804,10.821408 -0.04804,10.809394 0.336293,0.120107 c 0.684595,0.240206 3.230808,0.396348 4.624018,0.276242 0.732637,-0.07208 1.429242,-0.168151 1.537336,-0.228199 0.180156,-0.108089 0.204178,-0.936817 0.192167,-10.98955 l -0.01201,-10.869451 2.666318,-2.570229 c 1.477284,-1.405221 3.627153,-3.483032 4.780156,-4.612012 1.153002,-1.128979 2.690338,-2.61828 3.422975,-3.302868 0.720626,-0.696613 2.257962,-2.185904 3.422975,-3.314884 1.153002,-1.1289787 2.546212,-2.4741514 3.086682,-2.9785923 L 45.755475,7.1881701 45.575319,6.7557935 C 45.05887,5.4946917 41.599864,2.1678024 40.819185,2.1678024 c -0.26423,0 -0.07207,-0.1801561 -4.840207,4.5399484 C 33.168534,9.494172 24.701175,17.793386 24.088642,18.357876 24.040602,18.405953 20.857836,15.30722 14.600396,9.121844 8.9074483,3.5009593 7.5742888,2.2278514 7.3460906,2.1918239 7.2380016,2.1798287 6.8776832,2.3359523 6.5534021,2.552136 Z"
       id="path1"
       style="display:inline;stroke-width:0.0120105;fill-opacity:1;fill:url(#linearGradient24)" />
  </g>
</svg>
